<svg xmlns="http://www.w3.org/2000/svg" viewBox="0 0 1920 1080"><path fill="#000810" d="M-31-34h1982v1148H-31z"/><path fill="#fff" d="M1188.9 553l-15.4-38.5h-14.6l22.2 55.6-14.1 31h14.9l39.4-86.6h-14.9zM1117.4 575c6.5 0 12.4-2 17.4-5.4v2.6c0 9.1-7.4 16.5-16.5 16.5-7.2 0-14-2.7-19.3-7.5l-9.2 10c7.8 7.2 17.9 11.1 28.5 11.1 16.6 0 30.1-13.5 30.1-30.1v-57.7h-13.6v3.9c-5-3.4-11-5.4-17.4-5.4-17.1 0-31 13.9-31 31s14 31 31 31zm0-48.4c9.6 0 17.4 7.8 17.4 17.4s-7.8 17.4-17.4 17.4c-9.6 0-17.4-7.8-17.4-17.4s7.8-17.4 17.4-17.4zM990.2 483.8h13.6v91.8h-13.6zM946.7 513.1c-17.7 0-32.1 14.4-32.1 32.1 0 17.7 14.4 32.1 32.1 32.1s32.1-14.4 32.1-32.1c0-17.7-14.4-32.1-32.1-32.1zm0 50.6c-10.2 0-18.5-8.3-18.5-18.5s8.3-18.5 18.5-18.5 18.5 8.3 18.5 18.5-8.3 18.5-18.5 18.5zM1047.4 513.1c-17.7 0-32.1 14.4-32.1 32.1 0 17.7 14.4 32.1 32.1 32.1s32.1-14.4 32.1-32.1c0-17.7-14.4-32.1-32.1-32.1zm0 50.6c-10.2 0-18.5-8.3-18.5-18.5s8.3-18.5 18.5-18.5 18.5 8.3 18.5 18.5-8.2 18.5-18.5 18.5zM878.1 513.6c-6 0-11.5 1.8-16.2 4.8v-4h-13.6v61.1H862v-32.2c0-8.9 7.2-16.2 16.2-16.2 6.9 0 12.6 5.6 12.6 12.6v35.9h13.6v-35.9c-.1-14.4-11.9-26.1-26.3-26.1zM823.5 539.8v35.9H837v-35.9c0-14.4-11.7-26.1-26.2-26.1-6 0-11.5 1.8-16.2 4.8v-34.6H781V575.6h13.6v-32.2c0-8.9 7.2-16.2 16.2-16.2 7 0 12.7 5.6 12.7 12.6zM770.7 566.5l-10.1-9c-3.5 3.9-8.6 6.2-13.8 6.2-10.2 0-18.5-8.3-18.5-18.5s8.3-18.5 18.5-18.5c5.3 0 10.3 2.3 13.8 6.2l10.1-9c-6.1-6.8-14.8-10.8-24-10.8-17.7 0-32.1 14.4-32.1 32.1 0 17.7 14.4 32.1 32.1 32.1 9.2 0 18-3.9 24-10.8zM677.8 563.7c-7.5-.2-14-5.1-16.6-11.8h46.6v-6.8c0-18.6-12.4-32.1-29.4-32.1-8.7 0-16.8 3.4-22.9 9.6-6.1 6.2-9.4 14.4-9.2 23 .3 17.2 13.9 31 31.1 31.6h1c9.4 0 18.4-4 25-11l-9.9-9.3c-4.1 4.6-9.9 7-15.7 6.8zm-12.6-31.5c3.5-3.6 8.2-5.5 13.2-5.5 8.2 0 13 5.2 14.9 11.8h-32.2c.9-2.4 2.3-4.5 4.1-6.3z"/><path fill="#febe14" d="M619.7 514.5h18.5V532h-18.5z"/><path fill="#fff" d="M639 575.5c-20.3 0-36.8-16.5-36.8-36.8v-44.6h17.5v44.6c0 10.6 8.6 19.3 19.3 19.3v17.5z"/><path fill="#febe14" d="M1250.8 513.1c-17.7 0-32.1 14.4-32.1 32.1 0 17.7 14.4 32.1 32.1 32.1 17.7 0 32.1-14.4 32.1-32.1 0-17.7-14.4-32.1-32.1-32.1zm0 50.6c-10.2 0-18.5-8.3-18.5-18.5s8.3-18.5 18.5-18.5 18.5 8.3 18.5 18.5-8.3 18.5-18.5 18.5zM1317.5 513.6c-6 0-11.5 1.8-16.2 4.8v-4h-13.6v61.1h13.6v-32.2c0-8.9 7.2-16.2 16.2-16.2 6.9 0 12.6 5.6 12.6 12.6v35.9h13.6v-35.9c-.1-14.4-11.8-26.1-26.2-26.1zM1380 563.7c-7.5-.2-14-5.1-16.6-11.8h46.6v-6.8c0-18.6-12.4-32.1-29.4-32.1-8.7 0-16.8 3.4-22.9 9.6-6.1 6.2-9.4 14.4-9.2 23 .3 17.2 13.9 31 31.1 31.6h1c9.4 0 18.4-4 25-11l-9.9-9.3c-4.1 4.6-9.8 7-15.7 6.8zm-12.6-31.5c3.5-3.6 8.2-5.5 13.2-5.5 8.2 0 13 5.2 14.9 11.8h-32.2c.9-2.4 2.3-4.5 4.1-6.3z"/><g><path fill="#febe14" d="M538.7 530.9h24.6v61h-24.6z"/><path fill="#fff" d="M510 530.9v-24.6c15.8 0 28.7-12.9 28.7-28.7h24.6c-.1 29.4-23.9 53.3-53.3 53.3z"/></g></svg>